<mxfile host="app.diagrams.net" modified="2021-05-08T21:24:55.773Z" agent="5.0 (Windows NT 10.0; Win64; x64) AppleWebKit/537.36 (KHTML, like Gecko) Chrome/90.0.4430.93 Safari/537.36" etag="4V3mjxdah7SHhk1aG0GE" version="14.6.11" type="github">
  <diagram id="mesTVInG_lyvoXtZU7dM" name="Page-1">
    <mxGraphModel dx="868" dy="490" grid="1" gridSize="10" guides="1" tooltips="1" connect="1" arrows="1" fold="1" page="1" pageScale="1" pageWidth="850" pageHeight="1100" math="0" shadow="0">
      <root>
        <mxCell id="0" />
        <mxCell id="1" parent="0" />
        <mxCell id="P9y2EmJIqWJm7ogaJ_KM-1" value="&lt;font style=&quot;font-size: 30px&quot;&gt;Movie App Root&lt;/font&gt;" style="rounded=1;whiteSpace=wrap;html=1;fillColor=#d5e8d4;strokeColor=#82b366;" vertex="1" parent="1">
          <mxGeometry x="120" y="10" width="600" height="60" as="geometry" />
        </mxCell>
        <mxCell id="P9y2EmJIqWJm7ogaJ_KM-2" value="&lt;font style=&quot;font-size: 30px&quot;&gt;Header&lt;/font&gt;" style="rounded=1;whiteSpace=wrap;html=1;fillColor=#d5e8d4;strokeColor=#82b366;" vertex="1" parent="1">
          <mxGeometry x="120" y="90" width="600" height="60" as="geometry" />
        </mxCell>
        <mxCell id="P9y2EmJIqWJm7ogaJ_KM-3" value="Components" style="rounded=1;whiteSpace=wrap;html=1;fillColor=#d5e8d4;strokeColor=#82b366;" vertex="1" parent="1">
          <mxGeometry x="120" y="170" width="600" height="30" as="geometry" />
        </mxCell>
        <mxCell id="P9y2EmJIqWJm7ogaJ_KM-4" value="Name" style="rounded=1;whiteSpace=wrap;html=1;fillColor=#60a917;strokeColor=#2D7600;fontColor=#ffffff;" vertex="1" parent="1">
          <mxGeometry x="120" y="280" width="300" height="60" as="geometry" />
        </mxCell>
        <mxCell id="P9y2EmJIqWJm7ogaJ_KM-5" value="&lt;font style=&quot;font-size: 26px&quot;&gt;Choose a Movie&lt;/font&gt;" style="rounded=1;whiteSpace=wrap;html=1;fillColor=#008a00;strokeColor=#005700;fontColor=#ffffff;" vertex="1" parent="1">
          <mxGeometry x="420" y="220" width="300" height="60" as="geometry" />
        </mxCell>
        <mxCell id="P9y2EmJIqWJm7ogaJ_KM-6" value="Date of Birth" style="rounded=1;whiteSpace=wrap;html=1;fillColor=#60a917;strokeColor=#2D7600;fontColor=#ffffff;" vertex="1" parent="1">
          <mxGeometry x="120" y="340" width="300" height="60" as="geometry" />
        </mxCell>
        <mxCell id="P9y2EmJIqWJm7ogaJ_KM-7" value="Likes" style="rounded=1;whiteSpace=wrap;html=1;fillColor=#60a917;strokeColor=#2D7600;fontColor=#ffffff;" vertex="1" parent="1">
          <mxGeometry x="120" y="400" width="300" height="60" as="geometry" />
        </mxCell>
        <mxCell id="P9y2EmJIqWJm7ogaJ_KM-8" value="Suggestions" style="rounded=1;whiteSpace=wrap;html=1;fillColor=#60a917;strokeColor=#2D7600;fontColor=#ffffff;" vertex="1" parent="1">
          <mxGeometry x="120" y="460" width="300" height="60" as="geometry" />
        </mxCell>
        <mxCell id="P9y2EmJIqWJm7ogaJ_KM-9" value="Comments User has Made" style="rounded=1;whiteSpace=wrap;html=1;fillColor=#60a917;strokeColor=#2D7600;fontColor=#ffffff;" vertex="1" parent="1">
          <mxGeometry x="120" y="520" width="300" height="60" as="geometry" />
        </mxCell>
        <mxCell id="P9y2EmJIqWJm7ogaJ_KM-10" value="Genre" style="rounded=1;whiteSpace=wrap;html=1;fillColor=#008a00;strokeColor=#005700;fontColor=#ffffff;" vertex="1" parent="1">
          <mxGeometry x="420" y="280" width="300" height="60" as="geometry" />
        </mxCell>
        <mxCell id="P9y2EmJIqWJm7ogaJ_KM-11" value="Title" style="rounded=1;whiteSpace=wrap;html=1;fillColor=#008a00;strokeColor=#005700;fontColor=#ffffff;" vertex="1" parent="1">
          <mxGeometry x="420" y="340" width="300" height="60" as="geometry" />
        </mxCell>
        <mxCell id="P9y2EmJIqWJm7ogaJ_KM-12" value="Year" style="rounded=1;whiteSpace=wrap;html=1;fillColor=#008a00;strokeColor=#005700;fontColor=#ffffff;" vertex="1" parent="1">
          <mxGeometry x="420" y="400" width="300" height="60" as="geometry" />
        </mxCell>
        <mxCell id="P9y2EmJIqWJm7ogaJ_KM-13" value="Director" style="rounded=1;whiteSpace=wrap;html=1;fillColor=#008a00;strokeColor=#005700;fontColor=#ffffff;" vertex="1" parent="1">
          <mxGeometry x="420" y="460" width="300" height="60" as="geometry" />
        </mxCell>
        <mxCell id="P9y2EmJIqWJm7ogaJ_KM-14" value="Synopsis" style="rounded=1;whiteSpace=wrap;html=1;fillColor=#008a00;strokeColor=#005700;fontColor=#ffffff;" vertex="1" parent="1">
          <mxGeometry x="420" y="520" width="300" height="60" as="geometry" />
        </mxCell>
        <mxCell id="P9y2EmJIqWJm7ogaJ_KM-15" value="&lt;font style=&quot;font-size: 30px&quot;&gt;Footer&lt;/font&gt;" style="rounded=1;whiteSpace=wrap;html=1;fillColor=#d5e8d4;strokeColor=#82b366;" vertex="1" parent="1">
          <mxGeometry x="120" y="650" width="600" height="60" as="geometry" />
        </mxCell>
        <mxCell id="P9y2EmJIqWJm7ogaJ_KM-16" value="&lt;font style=&quot;font-size: 26px&quot;&gt;User Account&lt;/font&gt;" style="rounded=1;whiteSpace=wrap;html=1;fillColor=#60a917;strokeColor=#2D7600;fontColor=#ffffff;" vertex="1" parent="1">
          <mxGeometry x="120" y="220" width="300" height="60" as="geometry" />
        </mxCell>
        <mxCell id="P9y2EmJIqWJm7ogaJ_KM-17" value="Rating" style="rounded=1;whiteSpace=wrap;html=1;fillColor=#008a00;strokeColor=#005700;fontColor=#ffffff;" vertex="1" parent="1">
          <mxGeometry x="420" y="580" width="300" height="60" as="geometry" />
        </mxCell>
      </root>
    </mxGraphModel>
  </diagram>
</mxfile>
